<svg width="35" height="17" viewBox="0 0 35 17" fill="none" xmlns="http://www.w3.org/2000/svg">
<path d="M32.9167 0.791626H2.08335C1.67448 0.791626 1.28235 0.954051 0.993231 1.24317C0.704112 1.53229 0.541687 1.92442 0.541687 2.33329V14.6666C0.541687 15.0755 0.704112 15.4676 0.993231 15.7568C1.28235 16.0459 1.67448 16.2083 2.08335 16.2083H32.9167C33.3256 16.2083 33.7177 16.0459 34.0068 15.7568C34.2959 15.4676 34.4584 15.0755 34.4584 14.6666V2.33329C34.4584 1.92442 34.2959 1.53229 34.0068 1.24317C33.7177 0.954051 33.3256 0.791626 32.9167 0.791626ZM12.3354 12.3541H10.4084L8.09585 8.49996L7.55627 7.49788V12.3541H5.70627V4.64579H7.63335L9.94585 8.49996L10.4084 9.50204H10.4854C10.4854 9.50204 10.4084 8.57704 10.4084 8.26871V4.64579H12.3354V12.3541ZM19.35 12.3541H13.4146V4.64579H19.2729V6.18746H15.3417V7.57496H18.7334V9.11663H15.3417V10.7354H19.35V12.3541ZM27.7521 12.3541H25.825L25.0542 8.65413C24.9 8.03746 24.7459 7.18954 24.7459 7.18954C24.7459 7.18954 24.5917 8.03746 24.5146 8.65413L23.6667 12.3541H21.8167L19.6584 4.64579H21.5854L22.3563 7.88329C22.5254 8.51685 22.6541 9.16051 22.7417 9.81038L23.1271 7.96038L23.8979 4.64579H25.6709L26.3646 7.96038L26.75 9.81038L27.1354 7.88329L27.9063 4.64579H29.8334L27.7521 12.3541Z" fill="#1ADE9D"/>
</svg>
